<svg width="27" height="12" viewBox="0 0 27 12" fill="none" xmlns="http://www.w3.org/2000/svg">
<g opacity="0.4">
<mask id="path-1-inside-1_102_25357" fill="white">
<path fill-rule="evenodd" clip-rule="evenodd" d="M5.6773 1H19.2773C20.2039 1 20.8387 1.00078 21.3305 1.04096C21.8106 1.08018 22.0656 1.15192 22.2488 1.24524C22.6721 1.46095 23.0163 1.80516 23.2321 2.22852C23.3254 2.41166 23.3971 2.66673 23.4363 3.14684C23.4765 3.63862 23.4773 4.27341 23.4773 5.2V6.8C23.4773 7.72659 23.4765 8.36138 23.4363 8.85316C23.3971 9.33327 23.3254 9.58834 23.2321 9.77148C23.0163 10.1948 22.6721 10.539 22.2488 10.7548C22.0656 10.8481 21.8106 10.9198 21.3305 10.959C20.8387 10.9992 20.2039 11 19.2773 11H5.6773C4.75071 11 4.11591 10.9992 3.62413 10.959C3.14403 10.9198 2.88895 10.8481 2.70582 10.7548C2.28245 10.539 1.93825 10.1948 1.72253 9.77148C1.62922 9.58834 1.55748 9.33327 1.51825 8.85316C1.47807 8.36138 1.47729 7.72659 1.47729 6.8V5.2C1.47729 4.27341 1.47807 3.63862 1.51825 3.14684C1.55748 2.66673 1.62922 2.41166 1.72253 2.22852C1.93825 1.80516 2.28245 1.46095 2.70582 1.24524C2.88895 1.15192 3.14403 1.08018 3.62413 1.04096C4.11591 1.00078 4.75071 1 5.6773 1ZM0.477295 5.2C0.477295 3.37983 0.477295 2.46974 0.831524 1.77453C1.14311 1.163 1.6403 0.665817 2.25183 0.354229C2.94704 0 3.85712 0 5.6773 0H19.2773C21.0975 0 22.0076 0 22.7028 0.354229C23.3143 0.665817 23.8115 1.163 24.1231 1.77453C24.4773 2.46974 24.4773 3.37983 24.4773 5.2V6.8C24.4773 8.62017 24.4773 9.53026 24.1231 10.2255C23.8115 10.837 23.3143 11.3342 22.7028 11.6458C22.0076 12 21.0975 12 19.2773 12H5.6773C3.85712 12 2.94704 12 2.25183 11.6458C1.6403 11.3342 1.14311 10.837 0.831524 10.2255C0.477295 9.53026 0.477295 8.62017 0.477295 6.8V5.2ZM26.9773 6C26.9773 5.06808 26.3399 4.28503 25.4773 4.06301V7.93699C26.3399 7.71497 26.9773 6.93192 26.9773 6Z"/>
</mask>
<path d="M21.3305 1.04096L21.249 2.03764L21.3305 1.04096ZM22.2488 1.24524L21.7948 2.13624L21.7948 2.13624L22.2488 1.24524ZM23.2321 2.22852L24.1231 1.77453L24.1231 1.77453L23.2321 2.22852ZM23.4363 3.14684L22.4397 3.22827V3.22827L23.4363 3.14684ZM23.4363 8.85316L22.4397 8.77173V8.77173L23.4363 8.85316ZM23.2321 9.77148L24.1231 10.2255L24.1231 10.2255L23.2321 9.77148ZM22.2488 10.7548L21.7948 9.86376L21.7948 9.86376L22.2488 10.7548ZM21.3305 10.959L21.4119 11.9557L21.3305 10.959ZM3.62413 10.959L3.5427 11.9557L3.5427 11.9557L3.62413 10.959ZM2.70582 10.7548L3.15981 9.86376L3.15981 9.86376L2.70582 10.7548ZM1.72253 9.77148L0.831524 10.2255L0.831524 10.2255L1.72253 9.77148ZM1.51825 8.85316L2.51493 8.77173V8.77173L1.51825 8.85316ZM1.51825 3.14684L2.51493 3.22827L1.51825 3.14684ZM1.72253 2.22852L2.61354 2.68251L2.61354 2.68251L1.72253 2.22852ZM2.70582 1.24524L3.15981 2.13624L3.15981 2.13624L2.70582 1.24524ZM3.62413 1.04096L3.70556 2.03764H3.70557L3.62413 1.04096ZM0.831524 1.77453L1.72253 2.22852L0.831524 1.77453ZM2.25183 0.354229L2.70582 1.24524L2.25183 0.354229ZM22.7028 0.354229L23.1568 -0.536778V-0.536778L22.7028 0.354229ZM24.1231 1.77453L23.2321 2.22852V2.22852L24.1231 1.77453ZM24.1231 10.2255L23.2321 9.77148L24.1231 10.2255ZM22.7028 11.6458L22.2488 10.7548L22.7028 11.6458ZM2.25183 11.6458L2.70582 10.7548H2.70582L2.25183 11.6458ZM0.831524 10.2255L-0.0594828 10.6795L-0.0594827 10.6795L0.831524 10.2255ZM25.4773 4.06301L25.7266 3.09457L24.4773 2.77303V4.06301H25.4773ZM25.4773 7.93699H24.4773V9.22696L25.7266 8.90543L25.4773 7.93699ZM19.2773 0H5.6773V2H19.2773V0ZM21.4119 0.0442787C20.8698 -7.92929e-06 20.187 0 19.2773 0V2C20.2208 2 20.8075 2.00156 21.249 2.03764L21.4119 0.0442787ZM22.7028 0.35423C22.3549 0.176994 21.9534 0.0885226 21.4119 0.0442786L21.249 2.03764C21.6677 2.07184 21.7764 2.12685 21.7948 2.13624L22.7028 0.35423ZM24.1231 1.77453C23.8115 1.163 23.3143 0.665817 22.7028 0.354229L21.7948 2.13624C22.03 2.25608 22.2212 2.44731 22.3411 2.68251L24.1231 1.77453ZM24.433 3.06541C24.3888 2.52388 24.3003 2.12237 24.1231 1.77453L22.3411 2.68251C22.3504 2.70095 22.4055 2.80959 22.4397 3.22827L24.433 3.06541ZM24.4773 5.2C24.4773 4.29033 24.4773 3.60745 24.433 3.06541L22.4397 3.22827C22.4757 3.66978 22.4773 4.2565 22.4773 5.2H24.4773ZM24.4773 6.8V5.2H22.4773V6.8H24.4773ZM24.433 8.93459C24.4773 8.39255 24.4773 7.70967 24.4773 6.8H22.4773C22.4773 7.7435 22.4757 8.33022 22.4397 8.77173L24.433 8.93459ZM24.1231 10.2255C24.3003 9.87763 24.3888 9.47612 24.433 8.93459L22.4397 8.77173C22.4055 9.19041 22.3504 9.29905 22.3411 9.31749L24.1231 10.2255ZM22.7028 11.6458C23.3143 11.3342 23.8115 10.837 24.1231 10.2255L22.3411 9.31749C22.2212 9.55269 22.03 9.74392 21.7948 9.86376L22.7028 11.6458ZM21.4119 11.9557C21.9534 11.9115 22.3549 11.823 22.7028 11.6458L21.7948 9.86376C21.7764 9.87315 21.6677 9.92815 21.249 9.96236L21.4119 11.9557ZM19.2773 12C20.187 12 20.8698 12 21.4119 11.9557L21.249 9.96236C20.8075 9.99844 20.2208 10 19.2773 10V12ZM5.6773 12H19.2773V10H5.6773V12ZM3.5427 11.9557C4.08474 12 4.76762 12 5.6773 12V10C4.7338 10 4.14708 9.99844 3.70557 9.96236L3.5427 11.9557ZM2.25182 11.6458C2.59967 11.823 3.00118 11.9115 3.5427 11.9557L3.70557 9.96236C3.28688 9.92815 3.17824 9.87315 3.15981 9.86376L2.25182 11.6458ZM0.831524 10.2255C1.14311 10.837 1.6403 11.3342 2.25183 11.6458L3.15981 9.86376C2.9246 9.74392 2.73338 9.55269 2.61354 9.31749L0.831524 10.2255ZM0.521574 8.93459C0.565818 9.47612 0.654289 9.87763 0.831524 10.2255L2.61354 9.31749C2.60414 9.29905 2.54914 9.19041 2.51493 8.77173L0.521574 8.93459ZM0.477295 6.8C0.477295 7.70967 0.477287 8.39255 0.521574 8.93459L2.51493 8.77173C2.47886 8.33022 2.47729 7.7435 2.47729 6.8H0.477295ZM0.477295 5.2V6.8H2.47729V5.2H0.477295ZM0.521574 3.06541C0.477287 3.60745 0.477295 4.29033 0.477295 5.2H2.47729C2.47729 4.2565 2.47886 3.66978 2.51493 3.22827L0.521574 3.06541ZM0.831524 1.77453C0.654289 2.12237 0.565818 2.52388 0.521574 3.06541L2.51493 3.22827C2.54914 2.80959 2.60414 2.70095 2.61354 2.68251L0.831524 1.77453ZM2.25183 0.354229C1.6403 0.665817 1.14311 1.163 0.831524 1.77453L2.61354 2.68251C2.73338 2.44731 2.9246 2.25608 3.15981 2.13624L2.25183 0.354229ZM3.5427 0.0442786C3.00118 0.0885227 2.59967 0.176994 2.25183 0.354229L3.15981 2.13624C3.17824 2.12685 3.28688 2.07184 3.70556 2.03764L3.5427 0.0442786ZM5.6773 0C4.76762 0 4.08474 -7.92941e-06 3.5427 0.0442787L3.70557 2.03764C4.14708 2.00156 4.7338 2 5.6773 2V0ZM-0.0594828 1.32054C-0.320398 1.83261 -0.425774 2.38019 -0.475105 2.98397C-0.523483 3.57609 -0.522705 4.30642 -0.522705 5.2H1.47729C1.47729 4.27341 1.47807 3.63862 1.51825 3.14684C1.55748 2.66673 1.62922 2.41166 1.72253 2.22852L-0.0594828 1.32054ZM1.79784 -0.536778C0.998146 -0.129316 0.347979 0.520851 -0.0594828 1.32054L1.72253 2.22852C1.93825 1.80516 2.28245 1.46095 2.70582 1.24524L1.79784 -0.536778ZM5.6773 -1C4.78371 -1 4.05338 -1.00078 3.46127 -0.9524C2.85748 -0.903069 2.30991 -0.797693 1.79784 -0.536778L2.70582 1.24524C2.88895 1.15192 3.14403 1.08018 3.62413 1.04096C4.11591 1.00078 4.75071 1 5.6773 1V-1ZM19.2773 -1H5.6773V1H19.2773V-1ZM23.1568 -0.536778C22.6447 -0.797693 22.0971 -0.903069 21.4933 -0.9524C20.9012 -1.00078 20.1709 -1 19.2773 -1V1C20.2039 1 20.8387 1.00078 21.3305 1.04096C21.8106 1.08018 22.0656 1.15192 22.2488 1.24524L23.1568 -0.536778ZM25.0141 1.32054C24.6066 0.520852 23.9564 -0.129316 23.1568 -0.536778L22.2488 1.24524C22.6721 1.46095 23.0163 1.80516 23.2321 2.22852L25.0141 1.32054ZM25.4773 5.2C25.4773 4.30642 25.4781 3.57609 25.4297 2.98397C25.3804 2.38019 25.275 1.83261 25.0141 1.32054L23.2321 2.22852C23.3254 2.41166 23.3971 2.66673 23.4363 3.14684C23.4765 3.63862 23.4773 4.27341 23.4773 5.2H25.4773ZM25.4773 6.8V5.2H23.4773V6.8H25.4773ZM25.0141 10.6795C25.275 10.1674 25.3804 9.61981 25.4297 9.01603C25.4781 8.42391 25.4773 7.69358 25.4773 6.8H23.4773C23.4773 7.72659 23.4765 8.36138 23.4363 8.85316C23.3971 9.33327 23.3254 9.58834 23.2321 9.77148L25.0141 10.6795ZM23.1568 12.5368C23.9564 12.1293 24.6066 11.4791 25.0141 10.6795L23.2321 9.77148C23.0163 10.1948 22.6721 10.539 22.2488 10.7548L23.1568 12.5368ZM19.2773 13C20.1709 13 20.9012 13.0008 21.4933 12.9524C22.0971 12.9031 22.6447 12.7977 23.1568 12.5368L22.2488 10.7548C22.0656 10.8481 21.8106 10.9198 21.3305 10.959C20.8387 10.9992 20.2039 11 19.2773 11V13ZM5.6773 13H19.2773V11H5.6773V13ZM1.79783 12.5368C2.30991 12.7977 2.85748 12.9031 3.46127 12.9524C4.05338 13.0008 4.78371 13 5.6773 13V11C4.75071 11 4.11591 10.9992 3.62413 10.959C3.14403 10.9198 2.88895 10.8481 2.70582 10.7548L1.79783 12.5368ZM-0.0594827 10.6795C0.347979 11.4791 0.998146 12.1293 1.79784 12.5368L2.70582 10.7548C2.28245 10.539 1.93825 10.1948 1.72253 9.77148L-0.0594827 10.6795ZM-0.522705 6.8C-0.522705 7.69358 -0.523483 8.42391 -0.475105 9.01603C-0.425774 9.61981 -0.320398 10.1674 -0.0594828 10.6795L1.72253 9.77148C1.62922 9.58834 1.55748 9.33327 1.51825 8.85316C1.47807 8.36138 1.47729 7.72659 1.47729 6.8H-0.522705ZM-0.522705 5.2V6.8H1.47729V5.2H-0.522705ZM25.228 5.03145C25.6596 5.14251 25.9773 5.53541 25.9773 6H27.9773C27.9773 4.60075 27.0203 3.42755 25.7266 3.09457L25.228 5.03145ZM26.4773 7.93699V4.06301H24.4773V7.93699H26.4773ZM25.9773 6C25.9773 6.46459 25.6596 6.85749 25.228 6.96855L25.7266 8.90543C27.0203 8.57245 27.9773 7.39925 27.9773 6H25.9773Z" fill="black" mask="url(#path-1-inside-1_102_25357)"/>
</g>
<rect x="2.47729" y="2" width="20" height="8" rx="1.5" fill="black"/>
</svg>
