<svg width="14" height="14" viewBox="0 0 14 14" fill="none" xmlns="http://www.w3.org/2000/svg">
<path d="M6.91876 6.23031C7.00667 6.38473 7.15712 6.56619 7.24417 6.62011C7.36124 6.69273 7.52968 6.73629 7.97463 6.73629H11.6291H10.8675C12.0281 6.73629 12.2457 6.30493 12.2457 5.94546C12.2457 5.81102 12.1761 5.55106 12.0367 5.16571C11.2474 3.15268 9.27366 1.72588 6.96373 1.72588C6.48663 1.72549 6.01155 1.78723 5.55067 1.9095C5.43983 1.94286 5.3583 1.97521 5.30593 2.00627C4.99517 2.19146 4.73418 2.59853 5.3319 3.58448L4.93845 2.93556L6.82634 6.04957C6.82895 6.05618 6.832 6.06251 6.83505 6.06883L6.91876 6.23031ZM7.25389 7.62116C7.12346 7.70197 7.05179 7.79601 6.81865 8.19631L4.93583 11.2931L5.3319 10.6397C4.73418 11.6256 4.99517 12.0327 5.30593 12.2179C5.41836 12.2848 5.66558 12.3568 6.04771 12.4339C6.35036 12.4846 6.65678 12.5101 6.96373 12.5099C9.42106 12.5099 11.498 10.8952 12.173 8.678C12.2219 8.48144 12.2456 8.32658 12.2456 8.24606C12.2456 7.88659 12.028 7.45523 10.8673 7.45523H11.6304H7.97797C7.55144 7.45523 7.38431 7.54035 7.25389 7.62116ZM4.31432 3.30179L4.71009 3.95473C4.11237 2.96878 3.62723 3.00602 3.31633 3.19122C3.192 3.26527 2.90228 3.52495 2.6114 3.88269L2.62359 3.86615C1.90794 4.80167 1.52145 5.94391 1.52332 7.11791C1.52332 8.40912 1.98118 9.59421 2.74487 10.5226L2.6114 10.3415C2.90228 10.6992 3.192 10.9589 3.31633 11.0331C3.62723 11.2181 4.11237 11.2554 4.71009 10.2694L4.31185 10.9264L6.10777 7.96338L6.09326 7.98063C6.28665 7.59715 6.38342 7.28571 6.38342 7.04601C6.38342 6.85233 6.3045 6.61177 6.14651 6.32406L4.31432 3.30179ZM8.10738 0.0930305L8.27944 0.120062L8.27581 0.928147C8.3955 0.953598 8.51403 0.982499 8.63125 1.01456L8.94506 0.282398L9.11233 0.329992L9.00933 1.13132C9.1251 1.17115 9.23913 1.21414 9.35171 1.26044L9.75314 0.571699L9.91331 0.639135L9.71252 1.42234C9.78955 1.45973 9.86572 1.49884 9.94087 1.53939L10.4131 0.895652L10.5654 0.979336L10.2828 1.7381C10.3861 1.80252 10.4874 1.86981 10.5865 1.93998L11.1349 1.35764L11.2756 1.45901L10.9017 2.17852C10.9961 2.25483 11.0883 2.33385 11.1781 2.41548L11.7942 1.90331L11.9216 2.02093L11.4619 2.69012C11.5463 2.77717 11.6282 2.86665 11.7073 2.95842L12.3818 2.52462L12.4937 2.65676L11.9554 3.26498C12.0068 3.33285 12.0567 3.40172 12.1053 3.4716L12.8214 3.11026L12.9187 3.25333L12.3196 3.80217C12.3822 3.9057 12.4417 4.01109 12.4983 4.1185L13.2528 3.8466L13.3319 4.00031L12.6704 4.47236C12.7197 4.58265 12.7657 4.69466 12.8086 4.80825L13.5906 4.62952L13.6501 4.79171L12.9354 5.18023C12.9707 5.29555 13.0026 5.4123 13.0312 5.53035L13.8294 5.44738L13.8686 5.61562L13.111 5.91512C13.1255 5.99852 13.1382 6.08235 13.1494 6.16675L13.9529 6.16704L13.974 6.33829L13.1881 6.558C13.1961 6.67763 13.2008 6.79841 13.2018 6.91991L14 7.01725V7.1898L13.1929 7.31288C13.1863 7.43345 13.1762 7.5538 13.1625 7.67379L13.9423 7.86675L13.9211 8.038L13.1057 8.06273C13.0907 8.14632 13.074 8.22959 13.0555 8.31249L13.8099 8.58482L13.7708 8.75306L12.9578 8.6931C12.9239 8.80929 12.8866 8.92447 12.8459 9.03847L13.5607 9.39981L13.5012 9.562L12.7018 9.40427C12.6534 9.51639 12.6017 9.62706 12.5466 9.73613L13.2144 10.1745L13.1366 10.329L12.358 10.0818C12.3148 10.1552 12.2701 10.2277 12.224 10.2993L12.8411 10.8039L12.7475 10.9494L12.0001 10.6234C11.9279 10.7211 11.8528 10.8167 11.7749 10.91L12.3248 11.4844L12.2139 11.6176L11.5132 11.2045C11.4591 11.2617 11.4038 11.3179 11.3475 11.373L11.8662 12.1078L11.7368 12.2231L11.0375 11.6568C10.9524 11.7296 10.8652 11.8002 10.7759 11.8685L11.2001 12.6596L11.0575 12.7587L10.4338 12.1129C10.3561 12.1647 10.277 12.2147 10.1966 12.263L10.5521 13.0546L10.4027 13.1435L9.8338 12.4652C9.73123 12.518 9.62721 12.5679 9.5216 12.615L9.77548 13.4394L9.61648 13.5095L9.13743 12.7713C9.06265 12.7989 8.98734 12.825 8.91154 12.8497L9.0765 13.6923L8.91111 13.7458L8.51374 12.9646C8.40131 12.9931 8.28756 13.0187 8.17281 13.0409L8.23273 13.8942L8.06182 13.9272L7.76456 13.1065C7.68506 13.1166 7.60497 13.1252 7.52446 13.1324L7.49413 13.985L7.32077 14L7.11229 13.1552C7.03686 13.157 6.96141 13.1574 6.88597 13.1565L6.67923 13.9942L6.50587 13.9792L6.47598 13.1384C6.39396 13.1321 6.31207 13.1242 6.23036 13.1147L5.93818 13.9213L5.76727 13.8884L5.82589 13.0545C5.7084 13.033 5.59156 13.0081 5.47552 12.98L5.08904 13.74L4.9235 13.6867L5.08309 12.8711C5.00344 12.8462 4.92431 12.8196 4.84574 12.7915L4.38352 13.5038L4.22437 13.4336L4.4681 12.6425C4.35767 12.5946 4.24867 12.5435 4.14124 12.4894L3.5972 13.1379L3.44792 13.0488L3.78595 12.2958C3.70091 12.2458 3.61708 12.1938 3.53453 12.1398L2.94261 12.7529L2.79985 12.6539L3.20085 11.906C3.10574 11.8346 3.01271 11.7605 2.92186 11.6839L2.26321 12.2173L2.1338 12.1019L2.62068 11.4125C2.55808 11.3524 2.49675 11.2909 2.43673 11.2282L1.78605 11.6118L1.67521 11.4787L2.18385 10.9474C2.10002 10.8484 2.01931 10.7469 1.94187 10.643L1.25246 10.9437L1.15888 10.7981L1.72613 10.3343C1.67501 10.2561 1.62567 10.1767 1.57816 10.0963L0.863358 10.3232L0.785596 10.1688L1.39681 9.76762C1.33733 9.65115 1.28133 9.53267 1.2291 9.41218L0.498777 9.55625L0.439295 9.39406L1.09098 9.06479C1.04653 8.94206 1.00603 8.81795 0.969554 8.69267L0.229223 8.7473L0.190052 8.57907L0.87627 8.33147C0.855469 8.23965 0.836797 8.14736 0.820269 8.05468L0.0789222 8.03225L0.0577409 7.86114L0.7663 7.68572C0.751357 7.55703 0.740477 7.4269 0.733658 7.29591L0 7.18405V7.0115L0.725534 6.92293C0.726611 6.79263 0.731788 6.66239 0.741057 6.5324L0.0258239 6.33254L0.0471502 6.16143L0.778777 6.16114C0.791254 6.06768 0.805762 5.97494 0.8223 5.88292L0.13144 5.60972L0.170611 5.44163L0.899482 5.51741C0.930275 5.39106 0.965111 5.26571 1.00394 5.14155L0.349927 4.78596L0.409409 4.62377L1.12667 4.78769C1.1731 4.66619 1.22315 4.54656 1.27683 4.42879L0.668083 3.99456L0.74715 3.8407L1.44338 4.09176C1.50405 3.97778 1.5683 3.86572 1.63604 3.75573L1.08126 3.24758L1.17847 3.10451L1.84408 3.44026C1.89718 3.36491 1.95188 3.29086 2.00802 3.21796L1.50634 2.65101L1.6182 2.51872L2.24928 2.92478C2.33342 2.82864 2.4205 2.73509 2.51042 2.64425L2.07838 2.01518L2.20576 1.89756L2.78752 2.38112C2.88219 2.29648 2.97944 2.21472 3.07913 2.13596L2.72441 1.45326L2.86514 1.35189L3.388 1.90705C3.49144 1.83516 3.59735 1.76628 3.70543 1.70057L3.43471 0.973584L3.58705 0.8899L4.04157 1.5102C4.1204 1.46872 4.20011 1.42893 4.28066 1.39086L4.08655 0.633527L4.24671 0.565947L4.63697 1.23571C4.75246 1.1897 4.86953 1.14699 4.98806 1.10774L4.88752 0.324384L5.0548 0.276935L5.36338 0.996734C5.48234 0.965532 5.60247 0.937781 5.72404 0.913337L5.72041 0.114455L5.89248 0.0874227L6.11285 0.848489C6.23326 0.832098 6.29942 0.818725 6.42186 0.809235L6.51776 0.00603904L6.69185 0L6.81865 0.791262C6.84854 0.79083 6.9337 0.791262 6.96373 0.791262C7.01828 0.791262 7.07254 0.791981 7.1268 0.793275L7.25273 0.00618289L7.42682 0.0122219L7.52257 0.815706C7.64472 0.82649 7.76587 0.840725 7.88584 0.858267L8.10738 0.0930305Z" fill="white"/>
</svg>
