<svg width="17" height="10" viewBox="0 0 17 10" fill="none" xmlns="http://www.w3.org/2000/svg">
<path fill-rule="evenodd" clip-rule="evenodd" d="M14.0771 0.617317C14.001 0.801088 14.001 1.03406 14.001 1.5V8.5C14.001 8.96594 14.001 9.19891 14.0771 9.38268C14.1786 9.62771 14.3733 9.82239 14.6183 9.92388C14.8021 10 15.035 10 15.501 10C15.9669 10 16.1999 10 16.3837 9.92388C16.6287 9.82239 16.8234 9.62771 16.9249 9.38268C17.001 9.19891 17.001 8.96594 17.001 8.5V1.5C17.001 1.03406 17.001 0.801088 16.9249 0.617317C16.8234 0.372288 16.6287 0.177614 16.3837 0.0761205C16.1999 0 15.9669 0 15.501 0C15.035 0 14.8021 0 14.6183 0.0761205C14.3733 0.177614 14.1786 0.372288 14.0771 0.617317ZM9.50098 3.5C9.50098 3.03406 9.50098 2.80109 9.5771 2.61732C9.67859 2.37229 9.87327 2.17761 10.1183 2.07612C10.3021 2 10.535 2 11.001 2C11.4669 2 11.6999 2 11.8837 2.07612C12.1287 2.17761 12.3234 2.37229 12.4249 2.61732C12.501 2.80109 12.501 3.03406 12.501 3.5V8.5C12.501 8.96594 12.501 9.19891 12.4249 9.38268C12.3234 9.62771 12.1287 9.82239 11.8837 9.92388C11.6999 10 11.4669 10 11.001 10C10.535 10 10.3021 10 10.1183 9.92388C9.87327 9.82239 9.67859 9.62771 9.5771 9.38268C9.50098 9.19891 9.50098 8.96594 9.50098 8.5V3.5ZM5.0771 4.61732C5.00098 4.80109 5.00098 5.03406 5.00098 5.5V8.5C5.00098 8.96594 5.00098 9.19891 5.0771 9.38268C5.17859 9.62771 5.37327 9.82239 5.61829 9.92388C5.80206 10 6.03504 10 6.50098 10C6.96692 10 7.19989 10 7.38366 9.92388C7.62869 9.82239 7.82336 9.62771 7.92486 9.38268C8.00098 9.19891 8.00098 8.96594 8.00098 8.5V5.5C8.00098 5.03406 8.00098 4.80109 7.92486 4.61732C7.82336 4.37229 7.62869 4.17761 7.38366 4.07612C7.19989 4 6.96692 4 6.50098 4C6.03504 4 5.80206 4 5.61829 4.07612C5.37327 4.17761 5.17859 4.37229 5.0771 4.61732ZM0.577097 6.11732C0.500977 6.30109 0.500977 6.53406 0.500977 7V8.5C0.500977 8.96594 0.500977 9.19891 0.577097 9.38268C0.678591 9.62771 0.873265 9.82239 1.11829 9.92388C1.30206 10 1.53504 10 2.00098 10C2.46692 10 2.69989 10 2.88366 9.92388C3.12869 9.82239 3.32336 9.62771 3.42486 9.38268C3.50098 9.19891 3.50098 8.96594 3.50098 8.5V7C3.50098 6.53406 3.50098 6.30109 3.42486 6.11732C3.32336 5.87229 3.12869 5.67761 2.88366 5.57612C2.69989 5.5 2.46692 5.5 2.00098 5.5C1.53504 5.5 1.30206 5.5 1.11829 5.57612C0.873265 5.67761 0.678591 5.87229 0.577097 6.11732Z" fill="black"/>
</svg>
