<svg width="20" height="13" viewBox="0 0 20 13" fill="none" xmlns="http://www.w3.org/2000/svg">
<path fill-rule="evenodd" clip-rule="evenodd" d="M19.2 1.22461C19.2 0.603289 18.7224 0.0996094 18.1333 0.0996094H17.0667C16.4776 0.0996094 16 0.603289 16 1.22461V10.9746C16 11.5959 16.4776 12.0996 17.0667 12.0996H18.1333C18.7224 12.0996 19.2 11.5959 19.2 10.9746V1.22461ZM11.7667 2.49961H12.8333C13.4224 2.49961 13.9 3.01538 13.9 3.65161V10.9476C13.9 11.5838 13.4224 12.0996 12.8333 12.0996H11.7667C11.1776 12.0996 10.7 11.5838 10.7 10.9476V3.65161C10.7 3.01538 11.1776 2.49961 11.7667 2.49961ZM7.43333 5.09961H6.36667C5.77756 5.09961 5.3 5.62194 5.3 6.26628V10.9329C5.3 11.5773 5.77756 12.0996 6.36667 12.0996H7.43333C8.02244 12.0996 8.5 11.5773 8.5 10.9329V6.26628C8.5 5.62194 8.02244 5.09961 7.43333 5.09961ZM2.13333 7.49961H1.06667C0.477563 7.49961 0 8.01448 0 8.64961V10.9496C0 11.5847 0.477563 12.0996 1.06667 12.0996H2.13333C2.72244 12.0996 3.2 11.5847 3.2 10.9496V8.64961C3.2 8.01448 2.72244 7.49961 2.13333 7.49961Z" fill="white"/>
</svg>
