<svg width="1216" height="94" viewBox="0 0 1216 94" fill="none" xmlns="http://www.w3.org/2000/svg">
<path d="M108.46 16H110.215V11.9091H112.602C115.301 11.9091 116.636 10.2784 116.636 8.13068C116.636 5.98864 115.312 4.36364 112.608 4.36364H108.46V16ZM110.215 10.4205V5.86932H112.42C114.159 5.86932 114.869 6.8125 114.869 8.13068C114.869 9.44886 114.159 10.4205 112.443 10.4205H110.215ZM122.125 16.1761C124.585 16.1761 126.193 14.375 126.193 11.6761C126.193 8.96023 124.585 7.15909 122.125 7.15909C119.664 7.15909 118.056 8.96023 118.056 11.6761C118.056 14.375 119.664 16.1761 122.125 16.1761ZM122.13 14.75C120.522 14.75 119.772 13.3466 119.772 11.6705C119.772 10 120.522 8.57955 122.13 8.57955C123.727 8.57955 124.477 10 124.477 11.6705C124.477 13.3466 123.727 14.75 122.13 14.75ZM131.765 16.1761C134.225 16.1761 135.833 14.375 135.833 11.6761C135.833 8.96023 134.225 7.15909 131.765 7.15909C129.305 7.15909 127.697 8.96023 127.697 11.6761C127.697 14.375 129.305 16.1761 131.765 16.1761ZM131.771 14.75C130.163 14.75 129.413 13.3466 129.413 11.6705C129.413 10 130.163 8.57955 131.771 8.57955C133.367 8.57955 134.117 10 134.117 11.6705C134.117 13.3466 133.367 14.75 131.771 14.75ZM137.73 16H139.429V10.6705C139.429 9.52841 140.309 8.70455 141.514 8.70455C141.866 8.70455 142.264 8.76705 142.4 8.80682V7.18182C142.23 7.15909 141.894 7.14205 141.679 7.14205C140.656 7.14205 139.781 7.72159 139.463 8.65909H139.372V7.27273H137.73V16Z" fill="#111827"/>
<path d="M349.429 16H356.457V14.4886H351.184V4.36364H349.429V16ZM362 16.1761C364.46 16.1761 366.068 14.375 366.068 11.6761C366.068 8.96023 364.46 7.15909 362 7.15909C359.539 7.15909 357.931 8.96023 357.931 11.6761C357.931 14.375 359.539 16.1761 362 16.1761ZM362.005 14.75C360.397 14.75 359.647 13.3466 359.647 11.6705C359.647 10 360.397 8.57955 362.005 8.57955C363.602 8.57955 364.352 10 364.352 11.6705C364.352 13.3466 363.602 14.75 362.005 14.75ZM369.59 16H371.318L373.09 9.69886H373.221L374.994 16H376.727L379.289 7.27273H377.534L375.835 13.6534H375.75L374.045 7.27273H372.289L370.573 13.6818H370.488L368.778 7.27273H367.022L369.59 16Z" fill="#111827"/>
<path d="M567.864 4.6216V16.258H569.535V7.83183H569.643L573.075 16.2409H574.461L577.893 7.83751H578.001V16.258H579.671V4.6216H577.54L573.836 13.6671H573.7L569.995 4.6216H567.864ZM585.763 16.4341C588.224 16.4341 589.832 14.633 589.832 11.9341C589.832 9.21819 588.224 7.41706 585.763 7.41706C583.303 7.41706 581.695 9.21819 581.695 11.9341C581.695 14.633 583.303 16.4341 585.763 16.4341ZM585.769 15.008C584.161 15.008 583.411 13.6046 583.411 11.9284C583.411 10.258 584.161 8.83751 585.769 8.83751C587.366 8.83751 588.116 10.258 588.116 11.9284C588.116 13.6046 587.366 15.008 585.769 15.008ZM594.995 16.4284C596.586 16.4284 597.211 15.4568 597.518 14.9H597.66V16.258H599.319V4.6216H597.62V8.94547H597.518C597.211 8.40569 596.631 7.41706 595.006 7.41706C592.898 7.41706 591.347 9.08183 591.347 11.9114C591.347 14.7352 592.876 16.4284 594.995 16.4284ZM595.37 14.9796C593.853 14.9796 593.063 13.6443 593.063 11.8943C593.063 10.1614 593.836 8.86024 595.37 8.86024C596.853 8.86024 597.648 10.0705 597.648 11.8943C597.648 13.7296 596.836 14.9796 595.37 14.9796ZM605.505 16.4341C607.408 16.4341 608.755 15.4966 609.141 14.0761L607.533 13.7864C607.227 14.6102 606.488 15.0307 605.522 15.0307C604.067 15.0307 603.09 14.0875 603.045 12.4057H609.249V11.8034C609.249 8.65001 607.363 7.41706 605.386 7.41706C602.954 7.41706 601.352 9.26933 601.352 11.9511C601.352 14.6614 602.931 16.4341 605.505 16.4341ZM603.05 11.133C603.119 9.89433 604.016 8.82047 605.397 8.82047C606.715 8.82047 607.579 9.79774 607.585 11.133H603.05ZM611.134 16.258H612.833V10.9284C612.833 9.78637 613.714 8.96251 614.918 8.96251C615.271 8.96251 615.668 9.02501 615.805 9.06478V7.43978C615.634 7.41706 615.299 7.40001 615.083 7.40001C614.06 7.40001 613.185 7.97956 612.867 8.91706H612.776V7.53069H611.134V16.258ZM619.737 16.4511C621.18 16.4511 621.992 15.7182 622.316 15.0648H622.384V16.258H624.043V10.4625C624.043 7.92274 622.043 7.41706 620.657 7.41706C619.077 7.41706 617.623 8.05342 617.055 9.64433L618.651 10.008C618.901 9.38865 619.538 8.79206 620.68 8.79206C621.776 8.79206 622.339 9.36592 622.339 10.3546V10.3943C622.339 11.0136 621.702 11.0023 620.134 11.1841C618.481 11.3773 616.788 11.8091 616.788 13.7921C616.788 15.508 618.077 16.4511 619.737 16.4511ZM620.106 15.0875C619.146 15.0875 618.452 14.6557 618.452 13.8148C618.452 12.9057 619.259 12.5818 620.242 12.4511C620.793 12.3773 622.1 12.2296 622.344 11.9852V13.1102C622.344 14.1443 621.521 15.0875 620.106 15.0875ZM630.38 7.53069H628.59V5.43978H626.891V7.53069H625.613V8.89433H626.891V14.0477C626.886 15.633 628.096 16.4 629.437 16.3716C629.977 16.3659 630.34 16.2636 630.539 16.1898L630.232 14.7864C630.119 14.8091 629.908 14.8602 629.636 14.8602C629.085 14.8602 628.59 14.6784 628.59 13.6955V8.89433H630.38V7.53069ZM635.927 16.4341C637.83 16.4341 639.177 15.4966 639.563 14.0761L637.955 13.7864C637.648 14.6102 636.91 15.0307 635.944 15.0307C634.489 15.0307 633.512 14.0875 633.467 12.4057H639.671V11.8034C639.671 8.65001 637.785 7.41706 635.808 7.41706C633.376 7.41706 631.773 9.26933 631.773 11.9511C631.773 14.6614 633.353 16.4341 635.927 16.4341ZM633.472 11.133C633.54 9.89433 634.438 8.82047 635.819 8.82047C637.137 8.82047 638.001 9.79774 638.006 11.133H633.472Z" fill="#111827"/>
<path d="M831.539 8.03977H833.34C832.948 5.77273 831.01 4.20455 828.499 4.20455C825.487 4.20455 823.289 6.47159 823.289 10.1875C823.289 13.8693 825.425 16.1591 828.578 16.1591C831.402 16.1591 833.419 14.3068 833.419 11.3693V10.0455H828.845V11.4943H831.72C831.681 13.3693 830.442 14.5568 828.578 14.5568C826.527 14.5568 825.033 13.0057 825.033 10.1761C825.033 7.35795 826.539 5.80682 828.51 5.80682C830.056 5.80682 831.101 6.65909 831.539 8.03977ZM839.188 16.1761C841.648 16.1761 843.256 14.375 843.256 11.6761C843.256 8.96023 841.648 7.15909 839.188 7.15909C836.728 7.15909 835.12 8.96023 835.12 11.6761C835.12 14.375 836.728 16.1761 839.188 16.1761ZM839.193 14.75C837.585 14.75 836.835 13.3466 836.835 11.6705C836.835 10 837.585 8.57955 839.193 8.57955C840.79 8.57955 841.54 10 841.54 11.6705C841.54 13.3466 840.79 14.75 839.193 14.75ZM848.828 16.1761C851.289 16.1761 852.897 14.375 852.897 11.6761C852.897 8.96023 851.289 7.15909 848.828 7.15909C846.368 7.15909 844.76 8.96023 844.76 11.6761C844.76 14.375 846.368 16.1761 848.828 16.1761ZM848.834 14.75C847.226 14.75 846.476 13.3466 846.476 11.6705C846.476 10 847.226 8.57955 848.834 8.57955C850.431 8.57955 851.181 10 851.181 11.6705C851.181 13.3466 850.431 14.75 848.834 14.75ZM858.06 16.1705C859.651 16.1705 860.276 15.1989 860.583 14.642H860.725V16H862.384V4.36364H860.685V8.6875H860.583C860.276 8.14773 859.696 7.15909 858.071 7.15909C855.963 7.15909 854.412 8.82386 854.412 11.6534C854.412 14.4773 855.941 16.1705 858.06 16.1705ZM858.435 14.7216C856.918 14.7216 856.128 13.3864 856.128 11.6364C856.128 9.90341 856.901 8.60227 858.435 8.60227C859.918 8.60227 860.713 9.8125 860.713 11.6364C860.713 13.4716 859.901 14.7216 858.435 14.7216Z" fill="#111827"/>
<path d="M1049.59 16H1056.95V14.4886H1051.34V10.9261H1056.5V9.42045H1051.34V5.875H1056.88V4.36364H1049.59V16ZM1060.43 7.27273H1058.57L1061.25 11.6364L1058.53 16H1060.4L1062.36 12.7386L1064.32 16H1066.18L1063.44 11.6364L1066.16 7.27273H1064.3L1062.36 10.6705L1060.43 7.27273ZM1071.22 16.1761C1073.28 16.1761 1074.62 14.9375 1074.8 13.2386H1073.15C1072.93 14.1818 1072.2 14.7386 1071.23 14.7386C1069.79 14.7386 1068.87 13.5398 1068.87 11.6364C1068.87 9.76705 1069.81 8.59091 1071.23 8.59091C1072.31 8.59091 1072.97 9.27273 1073.15 10.0909H1074.8C1074.62 8.32955 1073.18 7.15909 1071.2 7.15909C1068.74 7.15909 1067.15 9.01136 1067.15 11.6761C1067.15 14.3068 1068.68 16.1761 1071.22 16.1761ZM1080.38 16.1761C1082.29 16.1761 1083.63 15.2386 1084.02 13.8182L1082.41 13.5284C1082.1 14.3523 1081.37 14.7727 1080.4 14.7727C1078.94 14.7727 1077.97 13.8295 1077.92 12.1477H1084.13V11.5455C1084.13 8.39205 1082.24 7.15909 1080.26 7.15909C1077.83 7.15909 1076.23 9.01136 1076.23 11.6932C1076.23 14.4034 1077.81 16.1761 1080.38 16.1761ZM1077.93 10.875C1078 9.63636 1078.89 8.5625 1080.27 8.5625C1081.59 8.5625 1082.46 9.53977 1082.46 10.875H1077.93ZM1087.71 4.36364H1086.01V16H1087.71V4.36364ZM1091.69 4.36364H1090V16H1091.69V4.36364ZM1097.74 16.1761C1099.65 16.1761 1100.99 15.2386 1101.38 13.8182L1099.77 13.5284C1099.46 14.3523 1098.72 14.7727 1097.76 14.7727C1096.3 14.7727 1095.33 13.8295 1095.28 12.1477H1101.49V11.5455C1101.49 8.39205 1099.6 7.15909 1097.62 7.15909C1095.19 7.15909 1093.59 9.01136 1093.59 11.6932C1093.59 14.4034 1095.17 16.1761 1097.74 16.1761ZM1095.29 10.875C1095.36 9.63636 1096.25 8.5625 1097.63 8.5625C1098.95 8.5625 1099.82 9.53977 1099.82 10.875H1095.29ZM1105.07 10.8182C1105.07 9.42614 1105.92 8.63068 1107.1 8.63068C1108.26 8.63068 1108.96 9.38636 1108.96 10.6534V16H1110.66V10.4489C1110.66 8.28977 1109.47 7.15909 1107.68 7.15909C1106.37 7.15909 1105.51 7.76705 1105.11 8.69318H1105V7.27273H1103.37V16H1105.07V10.8182ZM1117.01 7.27273H1115.22V5.18182H1113.52V7.27273H1112.24V8.63636H1113.52V13.7898C1113.51 15.375 1114.72 16.142 1116.06 16.1136C1116.6 16.108 1116.97 16.0057 1117.17 15.9318L1116.86 14.5284C1116.75 14.5511 1116.54 14.6023 1116.26 14.6023C1115.71 14.6023 1115.22 14.4205 1115.22 13.4375V8.63636H1117.01V7.27273Z" fill="#111827"/>
<path d="M4.21735 87.7327C6.46451 87.7327 7.75712 85.8286 7.75712 82.5026C7.75712 79.2015 6.44462 77.2725 4.21735 77.2725C1.99008 77.2725 0.677579 79.2015 0.677579 82.5026C0.677579 85.8286 1.97019 87.7327 4.21735 87.7327ZM4.21735 86.639C2.73582 86.639 1.87076 85.1525 1.87076 82.5026C1.87076 79.8577 2.74576 78.3464 4.21735 78.3464C5.68894 78.3464 6.56394 79.8577 6.56394 82.5026C6.56394 85.1525 5.69889 86.639 4.21735 86.639Z" fill="#111827"/>
<path d="M122.314 77.4117H121.081L118.536 79.1021V80.3549L121.022 78.7043H121.081V87.5935H122.314V77.4117ZM128.563 87.7327C130.811 87.7327 132.103 85.8286 132.103 82.5026C132.103 79.2015 130.791 77.2725 128.563 77.2725C126.336 77.2725 125.024 79.2015 125.024 82.5026C125.024 85.8286 126.316 87.7327 128.563 87.7327ZM128.563 86.639C127.082 86.639 126.217 85.1525 126.217 82.5026C126.217 79.8577 127.092 78.3464 128.563 78.3464C130.035 78.3464 130.91 79.8577 130.91 82.5026C130.91 85.1525 130.045 86.639 128.563 86.639Z" fill="#111827"/>
<path d="M476.858 85.5055H481.65V87.5935H482.824V85.5055H484.216V84.4117H482.824V77.4117H481.332L476.858 84.4913V85.5055ZM481.65 84.4117H478.19V84.3322L481.571 78.9827H481.65V84.4117ZM489.4 87.7327C491.647 87.7327 492.94 85.8286 492.94 82.5026C492.94 79.2015 491.627 77.2725 489.4 77.2725C487.173 77.2725 485.86 79.2015 485.86 82.5026C485.86 85.8286 487.153 87.7327 489.4 87.7327ZM489.4 86.639C487.918 86.639 487.053 85.1525 487.053 82.5026C487.053 79.8577 487.928 78.3464 489.4 78.3464C490.872 78.3464 491.747 79.8577 491.747 82.5026C491.747 85.1525 490.881 86.639 489.4 86.639Z" fill="#111827"/>
<path d="M719.421 87.7327C721.479 87.7576 722.821 86.2065 722.821 84.3123C722.821 82.3435 721.364 80.9316 719.619 80.9316C718.57 80.9316 717.671 81.4437 717.114 82.2839H717.034C717.039 79.8031 718.004 78.3663 719.58 78.3663C720.653 78.3663 721.3 79.0424 721.528 79.9572H722.742C722.493 78.3762 721.29 77.2725 719.58 77.2725C717.288 77.2725 715.881 79.3009 715.881 82.9004C715.881 86.6638 717.75 87.7129 719.421 87.7327ZM719.421 86.639C718.143 86.639 717.208 85.5502 717.213 84.3322C717.218 83.1141 718.198 82.0254 719.46 82.0254C720.708 82.0254 721.628 83.0495 721.628 84.3123C721.628 85.6049 720.668 86.639 719.421 86.639ZM728.097 87.7327C730.344 87.7327 731.637 85.8286 731.637 82.5026C731.637 79.2015 730.324 77.2725 728.097 77.2725C725.87 77.2725 724.557 79.2015 724.557 82.5026C724.557 85.8286 725.85 87.7327 728.097 87.7327ZM728.097 86.639C726.616 86.639 725.751 85.1525 725.751 82.5026C725.751 79.8577 726.626 78.3464 728.097 78.3464C729.569 78.3464 730.444 79.8577 730.444 82.5026C730.444 85.1525 729.579 86.639 728.097 86.639Z" fill="#111827"/>
<path d="M958.356 87.7327C960.389 87.7327 961.806 86.5445 961.816 84.889C961.806 83.6013 960.946 82.5076 959.847 82.3038V82.2441C960.802 81.9955 961.428 81.0609 961.438 79.9771C961.428 78.4259 960.126 77.2725 958.356 77.2725C956.566 77.2725 955.264 78.4259 955.274 79.9771C955.264 81.0609 955.89 81.9955 956.864 82.2441V82.3038C955.746 82.5076 954.886 83.6013 954.896 84.889C954.886 86.5445 956.303 87.7327 958.356 87.7327ZM958.356 86.639C956.959 86.639 956.099 85.9231 956.109 84.8293C956.099 83.6809 957.048 82.8606 958.356 82.8606C959.644 82.8606 960.593 83.6809 960.603 84.8293C960.593 85.9231 959.733 86.639 958.356 86.639ZM958.356 81.8066C957.242 81.8066 956.457 81.1106 956.467 80.0566C956.457 79.0225 957.212 78.3464 958.356 78.3464C959.479 78.3464 960.235 79.0225 960.245 80.0566C960.235 81.1106 959.45 81.8066 958.356 81.8066ZM967.043 87.7327C969.29 87.7327 970.582 85.8286 970.582 82.5026C970.582 79.2015 969.27 77.2725 967.043 77.2725C964.815 77.2725 963.503 79.2015 963.503 82.5026C963.503 85.8286 964.795 87.7327 967.043 87.7327ZM967.043 86.639C965.561 86.639 964.696 85.1525 964.696 82.5026C964.696 79.8577 965.571 78.3464 967.043 78.3464C968.514 78.3464 969.389 79.8577 969.389 82.5026C969.389 85.1525 968.524 86.639 967.043 86.639Z" fill="#111827"/>
<path d="M1195.35 77.4117H1194.12L1191.57 79.1021V80.3549L1194.06 78.7043H1194.12V87.5935H1195.35V77.4117ZM1201.6 87.7327C1203.85 87.7327 1205.14 85.8286 1205.14 82.5026C1205.14 79.2015 1203.83 77.2725 1201.6 77.2725C1199.37 77.2725 1198.06 79.2015 1198.06 82.5026C1198.06 85.8286 1199.35 87.7327 1201.6 87.7327ZM1201.6 86.639C1200.12 86.639 1199.25 85.1525 1199.25 82.5026C1199.25 79.8577 1200.13 78.3464 1201.6 78.3464C1203.07 78.3464 1203.95 79.8577 1203.95 82.5026C1203.95 85.1525 1203.08 86.639 1201.6 86.639ZM1210.35 87.7327C1212.6 87.7327 1213.89 85.8286 1213.89 82.5026C1213.89 79.2015 1212.58 77.2725 1210.35 77.2725C1208.12 77.2725 1206.81 79.2015 1206.81 82.5026C1206.81 85.8286 1208.1 87.7327 1210.35 87.7327ZM1210.35 86.639C1208.87 86.639 1208 85.1525 1208 82.5026C1208 79.8577 1208.88 78.3464 1210.35 78.3464C1211.82 78.3464 1212.7 79.8577 1212.7 82.5026C1212.7 85.1525 1211.83 86.639 1210.35 86.639Z" fill="#111827"/>
<path d="M360.083 87.7327C362.056 87.7327 363.523 86.4948 363.523 84.8293C363.523 83.5367 362.757 82.5971 361.475 82.3833V82.3038C362.504 81.9906 363.145 81.1454 363.145 79.9969C363.145 78.5552 362.007 77.2725 360.122 77.2725C358.363 77.2725 356.901 78.3563 356.841 79.9572H358.034C358.079 78.943 359.044 78.3464 360.103 78.3464C361.226 78.3464 361.952 79.0275 361.952 80.0566C361.952 81.1305 361.112 81.8265 359.904 81.8265H359.088V82.9202H359.904C361.45 82.9202 362.31 83.7058 362.31 84.8293C362.31 85.9082 361.37 86.639 360.063 86.639C358.885 86.639 357.95 86.0325 357.875 85.0481H356.622C356.697 86.6489 358.109 87.7327 360.083 87.7327ZM368.877 87.7327C371.125 87.7327 372.417 85.8286 372.417 82.5026C372.417 79.2015 371.105 77.2725 368.877 77.2725C366.65 77.2725 365.338 79.2015 365.338 82.5026C365.338 85.8286 366.63 87.7327 368.877 87.7327ZM368.877 86.639C367.396 86.639 366.531 85.1525 366.531 82.5026C366.531 79.8577 367.406 78.3464 368.877 78.3464C370.349 78.3464 371.224 79.8577 371.224 82.5026C371.224 85.1525 370.359 86.639 368.877 86.639Z" fill="#111827"/>
<path d="M600.253 87.7327C602.192 87.7327 603.614 86.3009 603.614 84.3521C603.614 82.3783 602.242 80.9316 600.372 80.9316C599.686 80.9316 599.02 81.1752 598.602 81.5083H598.543L598.901 78.5055H603.156V77.4117H597.867L597.25 82.4231L598.403 82.5623C598.826 82.259 599.547 82.0403 600.173 82.0452C601.471 82.0552 602.421 83.0396 602.421 84.3719C602.421 85.6795 601.506 86.639 600.253 86.639C599.209 86.639 598.379 85.9678 598.284 85.0481H597.091C597.166 86.5992 598.503 87.7327 600.253 87.7327ZM608.91 87.7327C611.157 87.7327 612.449 85.8286 612.449 82.5026C612.449 79.2015 611.137 77.2725 608.91 77.2725C606.682 77.2725 605.37 79.2015 605.37 82.5026C605.37 85.8286 606.663 87.7327 608.91 87.7327ZM608.91 86.639C607.428 86.639 606.563 85.1525 606.563 82.5026C606.563 79.8577 607.438 78.3464 608.91 78.3464C610.381 78.3464 611.256 79.8577 611.256 82.5026C611.256 85.1525 610.391 86.639 608.91 86.639Z" fill="#111827"/>
<path d="M836.495 87.5935H837.787L842.321 78.5651V77.4117H835.799V78.5055H841.049V78.585L836.495 87.5935ZM847.277 87.7327C849.524 87.7327 850.817 85.8286 850.817 82.5026C850.817 79.2015 849.504 77.2725 847.277 77.2725C845.05 77.2725 843.737 79.2015 843.737 82.5026C843.737 85.8286 845.03 87.7327 847.277 87.7327ZM847.277 86.639C845.795 86.639 844.93 85.1525 844.93 82.5026C844.93 79.8577 845.805 78.3464 847.277 78.3464C848.748 78.3464 849.623 79.8577 849.623 82.5026C849.623 85.1525 848.758 86.639 847.277 86.639Z" fill="#111827"/>
<path d="M1079.28 77.2725C1077.21 77.2477 1075.88 78.8038 1075.88 80.6731C1075.88 82.6418 1077.33 84.0538 1079.08 84.0538C1080.14 84.0538 1081.03 83.5367 1081.59 82.7015H1081.67C1081.67 85.2072 1080.69 86.639 1079.12 86.639C1078.05 86.639 1077.39 85.9629 1077.17 85.0282H1075.96C1076.2 86.639 1077.41 87.7327 1079.12 87.7327C1081.41 87.7327 1082.82 85.7043 1082.82 82.085C1082.82 78.3464 1080.95 77.2924 1079.28 77.2725ZM1079.28 78.3663C1080.55 78.3663 1081.49 79.46 1081.49 80.6532C1081.49 81.8663 1080.49 82.96 1079.24 82.96C1077.99 82.96 1077.07 81.9458 1077.07 80.6731C1077.07 79.4004 1078.03 78.3663 1079.28 78.3663ZM1088.1 87.7327C1090.34 87.7327 1091.64 85.8286 1091.64 82.5026C1091.64 79.2015 1090.32 77.2725 1088.1 77.2725C1085.87 77.2725 1084.56 79.2015 1084.56 82.5026C1084.56 85.8286 1085.85 87.7327 1088.1 87.7327ZM1088.1 86.639C1086.62 86.639 1085.75 85.1525 1085.75 82.5026C1085.75 79.8577 1086.63 78.3464 1088.1 78.3464C1089.57 78.3464 1090.44 79.8577 1090.44 82.5026C1090.44 85.1525 1089.58 86.639 1088.1 86.639Z" fill="#111827"/>
<path d="M237.441 88.258H243.864V87.1642H239.131V87.0847L241.418 84.6386C243.168 82.7644 243.685 81.8894 243.685 80.7608C243.685 79.1898 242.412 77.9369 240.623 77.9369C238.838 77.9369 237.48 79.15 237.48 80.9398H238.654C238.654 79.7814 239.404 79.0108 240.583 79.0108C241.686 79.0108 242.532 79.6869 242.532 80.7608C242.532 81.7004 241.98 82.3965 240.801 83.6841L237.441 87.3631V88.258ZM249.238 88.3972C251.485 88.3972 252.778 86.4931 252.778 83.1671C252.778 79.8659 251.466 77.9369 249.238 77.9369C247.011 77.9369 245.699 79.8659 245.699 83.1671C245.699 86.4931 246.991 88.3972 249.238 88.3972ZM249.238 87.3034C247.757 87.3034 246.892 85.8169 246.892 83.1671C246.892 80.5222 247.767 79.0108 249.238 79.0108C250.71 79.0108 251.585 80.5222 251.585 83.1671C251.585 85.8169 250.72 87.3034 249.238 87.3034Z" fill="#111827"/>
<path d="M8.18632 23.9484H2.19922V65.1097H8.18632V23.9484Z" fill="#8548AB"/>
<path d="M259.645 35.1742H253.658V65.1097H259.645V35.1742Z" fill="#CB515C"/>
<path d="M499.128 35.1742H493.141V65.1097H499.128V35.1742Z" fill="#FA8B48"/>
<path d="M738.612 35.1742H732.625V65.1097H738.612V35.1742Z" fill="#F2FB48"/>
<path d="M978.096 35.1742H972.109V65.1097H978.096V35.1742Z" fill="#4EC5BA"/>
<path d="M139.903 35.1742H133.916V65.1097H139.903V35.1742Z" fill="#A959C7"/>
<path d="M391.36 35.1742H385.373V65.1097H391.36V35.1742Z" fill="#FA5348"/>
<path d="M630.845 35.1742H624.857V65.1097H630.845V35.1742Z" fill="#FABC4A"/>
<path d="M870.329 35.1742H864.342V65.1097H870.329V35.1742Z" fill="#48F456"/>
<path d="M1109.81 35.1742H1103.83V65.1097H1109.81V35.1742Z" fill="#D2E8E6"/>
<path d="M20.1609 35.1742H14.1738V65.1097H20.1609V35.1742Z" fill="#8849AE"/>
<path d="M271.62 35.1742H265.633V65.1097H271.62V35.1742Z" fill="#D0505A"/>
<path d="M511.102 35.1742H505.115V65.1097H511.102V35.1742Z" fill="#FA8F49"/>
<path d="M750.587 35.1742H744.6V65.1097H750.587V35.1742Z" fill="#E2FB48"/>
<path d="M990.069 35.1742H984.082V65.1097H990.069V35.1742Z" fill="#5BC8BF"/>
<path d="M151.878 35.1742H145.891V65.1097H151.878V35.1742Z" fill="#AD58BC"/>
<path d="M403.335 35.1742H397.348V65.1097H403.335V35.1742Z" fill="#FA5A48"/>
<path d="M642.819 35.1742H636.832V65.1097H642.819V35.1742Z" fill="#FAC34A"/>
<path d="M882.304 35.1742H876.316V65.1097H882.304V35.1742Z" fill="#48EE62"/>
<path d="M1121.79 35.1742H1115.8V65.1097H1121.79V35.1742Z" fill="#D5E9E7"/>
<path d="M32.1355 35.1742H26.1484V65.1097H32.1355V35.1742Z" fill="#8D4CB2"/>
<path d="M283.593 35.1742H277.605V65.1097H283.593V35.1742Z" fill="#D54F57"/>
<path d="M523.077 35.1742H517.09V65.1097H523.077V35.1742Z" fill="#FA9349"/>
<path d="M762.561 35.1742H756.574V65.1097H762.561V35.1742Z" fill="#D0FB48"/>
<path d="M1002.05 35.1742H996.059V65.1097H1002.05V35.1742Z" fill="#68CCC3"/>
<path d="M163.85 35.1742H157.863V65.1097H163.85V35.1742Z" fill="#AF57B0"/>
<path d="M415.309 35.1742H409.322V65.1097H415.309V35.1742Z" fill="#FA6048"/>
<path d="M654.794 35.1742H648.807V65.1097H654.794V35.1742Z" fill="#FACA4A"/>
<path d="M894.276 35.1742H888.289V65.1097H894.276V35.1742Z" fill="#49E96D"/>
<path d="M1133.76 35.1742H1127.77V65.1097H1133.76V35.1742Z" fill="#D8EAE8"/>
<path d="M44.1082 35.1742H38.1211V65.1097H44.1082V35.1742Z" fill="#8E4DB6"/>
<path d="M295.567 35.1742H289.58V65.1097H295.567V35.1742Z" fill="#DA4E55"/>
<path d="M535.052 35.1742H529.064V65.1097H535.052V35.1742Z" fill="#FA9649"/>
<path d="M774.536 35.1742H768.549V65.1097H774.536V35.1742Z" fill="#BFFB48"/>
<path d="M1014.02 35.1742H1008.03V65.1097H1014.02V35.1742Z" fill="#75CFC7"/>
<path d="M175.825 35.1742H169.838V65.1097H175.825V35.1742Z" fill="#B357A4"/>
<path d="M427.284 35.1742H421.297V65.1097H427.284V35.1742Z" fill="#FA6648"/>
<path d="M666.768 35.1742H660.781V65.1097H666.768V35.1742Z" fill="#FAD149"/>
<path d="M906.251 35.1742H900.264V65.1097H906.251V35.1742Z" fill="#49E377"/>
<path d="M1145.74 35.1742H1139.75V65.1097H1145.74V35.1742Z" fill="#DCEBEA"/>
<path d="M56.0828 35.1742H50.0957V65.1097H56.0828V35.1742Z" fill="#924FBA"/>
<path d="M307.542 35.1742H301.555V65.1097H307.542V35.1742Z" fill="#DF4D52"/>
<path d="M547.026 35.1742H541.039V65.1097H547.026V35.1742Z" fill="#FA9B49"/>
<path d="M786.509 35.1742H780.521V65.1097H786.509V35.1742Z" fill="#ADFB48"/>
<path d="M1025.99 35.1742H1020.01V65.1097H1025.99V35.1742Z" fill="#82D3CC"/>
<path d="M187.8 35.1742H181.812V65.1097H187.8V35.1742Z" fill="#B65699"/>
<path d="M439.257 35.1742H433.27V65.1097H439.257V35.1742Z" fill="#FA6C48"/>
<path d="M678.741 35.1742H672.754V65.1097H678.741V35.1742Z" fill="#FAD949"/>
<path d="M918.225 35.1742H912.238V65.1097H918.225V35.1742Z" fill="#4ADE85"/>
<path d="M1157.71 35.1742H1151.72V65.1097H1157.71V35.1742Z" fill="#DFECEB"/>
<path d="M68.0574 35.1742H62.0703V65.1097H68.0574V35.1742Z" fill="#9550BE"/>
<path d="M319.514 35.1742H313.527V65.1097H319.514V35.1742Z" fill="#E44C51"/>
<path d="M558.999 35.1742H553.012V65.1097H558.999V35.1742Z" fill="#FA9F49"/>
<path d="M798.483 35.1742H792.496V65.1097H798.483V35.1742Z" fill="#9BFB48"/>
<path d="M1037.97 35.1742H1031.98V65.1097H1037.97V35.1742Z" fill="#8FD6D0"/>
<path d="M199.774 35.1742H193.787V65.1097H199.774V35.1742Z" fill="#B9558D"/>
<path d="M451.231 35.1742H445.244V65.1097H451.231V35.1742Z" fill="#FA7348"/>
<path d="M690.716 35.1742H684.729V65.1097H690.716V35.1742Z" fill="#FAE049"/>
<path d="M930.2 35.1742H924.213V65.1097H930.2V35.1742Z" fill="#4AD88F"/>
<path d="M1169.68 35.1742H1163.7V65.1097H1169.68V35.1742Z" fill="#E2EDEC"/>
<path d="M80.032 35.1742H74.0449V65.1097H80.032V35.1742Z" fill="#9953C2"/>
<path d="M331.489 35.1742H325.502V65.1097H331.489V35.1742Z" fill="#E94C4F"/>
<path d="M570.973 35.1742H564.986V65.1097H570.973V35.1742Z" fill="#FAA24A"/>
<path d="M810.458 35.1742H804.471V65.1097H810.458V35.1742Z" fill="#89FB48"/>
<path d="M1049.94 35.1742H1043.96V65.1097H1049.94V35.1742Z" fill="#9CDAD4"/>
<path d="M211.749 35.1742H205.762V65.1097H211.749V35.1742Z" fill="#BC5482"/>
<path d="M463.206 35.1742H457.219V65.1097H463.206V35.1742Z" fill="#FA7948"/>
<path d="M702.69 35.1742H696.703V65.1097H702.69V35.1742Z" fill="#FAE849"/>
<path d="M942.175 35.1742H936.188V65.1097H942.175V35.1742Z" fill="#4BD39A"/>
<path d="M1181.66 35.1742H1175.67V65.1097H1181.66V35.1742Z" fill="#E5EDED"/>
<path d="M92.0066 35.1742H86.0195V65.1097H92.0066V35.1742Z" fill="#9C54C5"/>
<path d="M343.464 35.1742H337.477V65.1097H343.464V35.1742Z" fill="#EE4A4D"/>
<path d="M582.948 35.1742H576.961V65.1097H582.948V35.1742Z" fill="#FAA74A"/>
<path d="M822.432 35.1742H816.445V65.1097H822.432V35.1742Z" fill="#77FB48"/>
<path d="M1061.92 35.1742H1055.93V65.1097H1061.92V35.1742Z" fill="#A9DDD9"/>
<path d="M223.721 35.1742H217.734V65.1097H223.721V35.1742Z" fill="#BF5376"/>
<path d="M475.18 35.1742H469.193V65.1097H475.18V35.1742Z" fill="#FA8048"/>
<path d="M714.665 35.1742H708.678V65.1097H714.665V35.1742Z" fill="#FAEF49"/>
<path d="M954.147 35.1742H948.16V65.1097H954.147V35.1742Z" fill="#4BCEA5"/>
<path d="M1193.63 35.1742H1187.64V65.1097H1193.63V35.1742Z" fill="#E9EEEE"/>
<path d="M103.979 35.1742H97.9922V65.1097H103.979V35.1742Z" fill="#9F56CA"/>
<path d="M355.438 35.1742H349.451V65.1097H355.438V35.1742Z" fill="#F3494B"/>
<path d="M594.923 35.1742H588.936V65.1097H594.923V35.1742Z" fill="#FAAB4A"/>
<path d="M834.405 35.1742H828.418V65.1097H834.405V35.1742Z" fill="#66FB48"/>
<path d="M1073.89 35.1742H1067.9V65.1097H1073.89V35.1742Z" fill="#B6E1DD"/>
<path d="M235.696 35.1742H229.709V65.1097H235.696V35.1742Z" fill="#C3536B"/>
<path d="M486.987 23.9484H481V65.1097H486.987V23.9484Z" fill="#FA8648"/>
<path d="M725.987 23.9484H720V65.1097H725.987V23.9484Z" fill="#FAF748"/>
<path d="M965.987 23.9484H960V65.1097H965.987V23.9484Z" fill="#4BC8B0"/>
<path d="M1205.99 23.9484H1200V65.1097H1205.99V23.9484Z" fill="#ECEFEF"/>
<path d="M115.954 35.1742H109.967V65.1097H115.954V35.1742Z" fill="#A357CD"/>
<path d="M367.413 35.1742H361.426V65.1097H367.413V35.1742Z" fill="#F94849"/>
<path d="M606.897 35.1742H600.91V65.1097H606.897V35.1742Z" fill="#FAAE4B"/>
<path d="M846.38 35.1742H840.393V65.1097H846.38V35.1742Z" fill="#54FB48"/>
<path d="M1085.86 35.1742H1079.88V65.1097H1085.86V35.1742Z" fill="#C3E4E1"/>
<path d="M247.987 23.9484H242V65.1097H247.987V23.9484Z" fill="#C6525F"/>
<path d="M127.929 35.1742H121.941V65.1097H127.929V35.1742Z" fill="#A65AD1"/>
<path d="M379.386 35.1742H373.398V65.1097H379.386V35.1742Z" fill="#FA4C48"/>
<path d="M618.87 35.1742H612.883V65.1097H618.87V35.1742Z" fill="#FAB44B"/>
<path d="M858.354 35.1742H852.367V65.1097H858.354V35.1742Z" fill="#48F94B"/>
<path d="M1097.84 35.1742H1091.85V65.1097H1097.84V35.1742Z" fill="#CFE7E5"/>
</svg>
