<svg width="14" height="14" viewBox="0 0 14 14" fill="none" xmlns="http://www.w3.org/2000/svg">
<path fill-rule="evenodd" clip-rule="evenodd" d="M6.61926 0.0681691C6.04497 0.263886 5.56259 0.914159 5.19684 1.98563C5.13308 2.17234 5.07767 2.32951 5.07364 2.33489C5.06964 2.34026 4.95028 2.28633 4.80845 2.21502C4.46096 2.04034 3.98773 1.85848 3.65819 1.773C3.27377 1.67326 2.74373 1.67408 2.48701 1.77481C2.14806 1.90778 1.90648 2.14933 1.77349 2.48824C1.67183 2.74724 1.67186 3.27458 1.77355 3.66685C1.85444 3.97887 2.05288 4.4903 2.2277 4.83728C2.2914 4.96371 2.33908 5.07045 2.33367 5.07448C2.32826 5.07851 2.17107 5.13395 1.98433 5.1977C0.902025 5.56706 0.235872 6.06751 0.0573584 6.64534C-0.212117 7.51766 0.474173 8.28526 1.98433 8.80063C2.17107 8.86438 2.32826 8.91981 2.33367 8.92385C2.33908 8.92788 2.2914 9.03462 2.2277 9.16105C1.92577 9.76036 1.72834 10.378 1.69457 10.8288C1.6355 11.6167 2.05134 12.179 2.776 12.2912C3.24097 12.3631 3.9519 12.1931 4.71286 11.8278C4.90898 11.7337 5.07201 11.6604 5.07517 11.665C5.07836 11.6695 5.13308 11.826 5.19684 12.0127C5.70624 13.505 6.4849 14.2098 7.33191 13.9454C7.93208 13.7581 8.42666 13.1071 8.80026 12.0127C8.86402 11.826 8.91865 11.6696 8.92168 11.6652C8.92471 11.6608 9.09113 11.7351 9.29147 11.8303C10.0653 12.1981 10.7563 12.3631 11.2211 12.2912C11.8132 12.1995 12.2 11.811 12.2922 11.215C12.3632 10.7569 12.196 10.061 11.8303 9.29177C11.7351 9.09145 11.6608 8.92506 11.6652 8.92203C11.6697 8.919 11.828 8.86394 12.0172 8.79966C13.1021 8.43108 13.7587 7.93157 13.9458 7.33248C14.2097 6.48702 13.5008 5.70268 12.0172 5.19866C11.828 5.13438 11.6697 5.07933 11.6652 5.07629C11.6608 5.07326 11.7351 4.90687 11.8303 4.70656C12.1982 3.93285 12.3632 3.2419 12.2913 2.77719C12.1791 2.05263 11.6167 1.63684 10.8287 1.6959C10.3778 1.72967 9.76012 1.92707 9.16073 2.22896C9.03428 2.29265 8.92753 2.34033 8.92349 2.33492C8.91946 2.32951 8.86402 2.17234 8.80026 1.98563C8.43085 0.903466 7.93033 0.237405 7.35242 0.0589147C7.08907 -0.0224046 6.87716 -0.0197471 6.61926 0.0681691ZM7.13344 1.05476C7.35783 1.2027 7.6687 1.75483 7.86898 2.36124C8.05913 2.93689 8.06201 2.87992 7.83524 3.03253C7.72762 3.10497 7.49426 3.27479 7.31662 3.40992L6.99367 3.6556L6.84758 3.53598C6.69171 3.40836 6.35891 3.16512 6.11502 3.00057C5.94216 2.88396 5.94129 2.92682 6.12812 2.36124C6.3279 1.75637 6.62339 1.2289 6.85431 1.06485C6.97175 0.98144 7.01959 0.979721 7.13344 1.05476ZM3.67351 2.8249C4.03648 2.94633 4.80923 3.32532 4.81064 3.3826C4.81145 3.41671 4.66392 4.39563 4.63437 4.55224C4.62649 4.59382 4.59288 4.62758 4.55129 4.63565C4.38885 4.6672 3.44084 4.81064 3.39487 4.81064C3.36204 4.81064 3.27368 4.67092 3.13881 4.40573C2.70052 3.54392 2.563 2.82396 2.81587 2.71497C2.94316 2.66013 3.32874 2.70953 3.67351 2.8249ZM11.2442 2.7584C11.287 2.80132 11.2973 2.86507 11.2947 3.06898C11.292 3.27542 11.2692 3.39157 11.1778 3.6632C11.0438 4.06135 10.672 4.81064 10.6084 4.81064C10.5842 4.81064 10.35 4.77547 10.088 4.73248C9.82601 4.68949 9.57601 4.6541 9.53242 4.65385C9.48884 4.65357 9.43365 4.641 9.40982 4.62593C9.37189 4.60188 9.29 4.16199 9.19944 3.49574L9.18009 3.3533L9.58242 3.14733C10.2162 2.82286 10.672 2.67855 11.0097 2.6954C11.1299 2.70137 11.2085 2.72251 11.2442 2.7584ZM6.10739 4.23184L6.20119 4.30953L6.0844 4.41939C5.98284 4.51491 5.9471 4.52926 5.8108 4.52926C5.72456 4.52926 5.65399 4.52141 5.65399 4.51181C5.65399 4.46998 5.72131 4.04078 5.73372 4.00351C5.74742 3.96237 5.87937 4.043 6.10739 4.23184ZM8.29318 4.16121C8.30465 4.25185 8.32213 4.37178 8.33204 4.42765L8.35009 4.52926H8.19133C8.05838 4.52926 8.01466 4.5135 7.92208 4.43221C7.86129 4.37884 7.81154 4.32404 7.81154 4.31037C7.81154 4.27661 8.22767 3.96874 8.25253 3.9841C8.26341 3.99085 8.2817 4.07054 8.29318 4.16121ZM7.35683 5.54633C8.15763 5.75489 8.65533 6.57521 8.4528 7.35267C8.24296 8.15821 7.42478 8.65631 6.64499 8.45322C5.84066 8.24374 5.34152 7.42408 5.5443 6.64565C5.75474 5.83778 6.5722 5.34198 7.35683 5.54633ZM4.52831 5.81001C4.52831 5.93907 4.51195 5.98391 4.43125 6.07576C4.37787 6.13654 4.32272 6.18628 4.30868 6.18628C4.2816 6.18628 3.9811 5.78969 3.9811 5.75396C3.9811 5.74239 4.0796 5.71703 4.19999 5.69759C4.54932 5.64112 4.52831 5.63393 4.52831 5.81001ZM9.88586 5.71334C9.95187 5.72413 10.0047 5.74701 10.0034 5.76421C9.99983 5.80954 9.71869 6.18628 9.68842 6.18628C9.67438 6.18628 9.61923 6.13654 9.56585 6.07576C9.48483 5.9835 9.46879 5.93929 9.46879 5.80811V5.65094L9.61732 5.67235C9.69903 5.68411 9.81985 5.70256 9.88586 5.71334ZM3.03156 6.16283C3.10392 6.27032 3.27224 6.50165 3.40563 6.67695L3.64812 6.99566L3.40616 7.31787C3.27308 7.49508 3.10467 7.72813 3.03194 7.83574C2.87866 8.06244 2.93572 8.0596 2.35981 7.86941C1.64798 7.63437 1.06572 7.27692 1.00581 7.03821C0.946927 6.8037 1.55336 6.39613 2.36 6.12807C2.69314 6.01733 2.80877 5.98228 2.87772 5.97106C2.88998 5.96906 2.9592 6.05538 3.03156 6.16283ZM11.642 6.13013C12.3216 6.35402 12.9334 6.72954 12.9908 6.95799C13.0498 7.19297 12.4375 7.60613 11.642 7.86819C11.0603 8.05975 11.1184 8.06257 10.9657 7.83574C10.8933 7.72813 10.7243 7.49586 10.5901 7.31963L10.3463 6.99916L10.5901 6.6787C10.7243 6.50246 10.8933 6.2702 10.9657 6.16258C11.1184 5.93576 11.0603 5.93857 11.642 6.13013ZM4.43125 7.92256C4.51227 8.01483 4.52831 8.05903 4.52831 8.19022V8.34739L4.37978 8.32597C4.05418 8.27907 3.99133 8.26413 3.9937 8.23412C3.99727 8.18878 4.27841 7.81204 4.30868 7.81204C4.32272 7.81204 4.37787 7.86179 4.43125 7.92256ZM9.85746 8.00745C9.93639 8.11493 10.0021 8.21692 10.0034 8.23412C10.0058 8.26413 9.94292 8.27907 9.61732 8.32597L9.46879 8.34739V8.19022C9.46879 8.05903 9.48483 8.01483 9.56585 7.92256C9.61923 7.86179 9.67438 7.81204 9.68842 7.81204C9.70246 7.81204 9.77854 7.89999 9.85746 8.00745ZM4.11734 9.29296C4.61599 9.36962 4.65191 9.38559 4.65304 9.5316C4.65335 9.57459 4.68875 9.82005 4.73168 10.0771C4.77461 10.3341 4.80973 10.5687 4.80973 10.5985C4.80973 10.6725 4.10158 11.03 3.66213 11.1779C3.39046 11.2692 3.2743 11.2921 3.06783 11.2947C2.72262 11.2992 2.69792 11.2745 2.70239 10.9293C2.70665 10.5988 2.84998 10.1605 3.14075 9.58875L3.34863 9.18L3.4929 9.19957C3.57223 9.21032 3.85324 9.25234 4.11734 9.29296ZM10.8583 9.5926C11.1472 10.1607 11.2905 10.5995 11.2947 10.9293C11.2992 11.2745 11.2745 11.2992 10.9293 11.2947C10.5967 11.2905 10.1481 11.1432 9.58505 10.8534L9.18009 10.645L9.19944 10.5026C9.28703 9.85825 9.37217 9.39635 9.40741 9.37456C9.42992 9.36064 9.54087 9.33963 9.654 9.32785C9.7671 9.31606 10.0004 9.28126 10.1723 9.2505C10.6844 9.15889 10.6219 9.12769 10.8583 9.5926ZM6.07502 9.56611C6.13581 9.61948 6.18556 9.67463 6.18556 9.68867C6.18556 9.71534 5.78919 10.0162 5.75405 10.0162C5.73454 10.0162 5.71631 9.92813 5.67156 9.61758L5.65014 9.46907H5.80733C5.93854 9.46907 5.98275 9.48511 6.07502 9.56611ZM8.32554 9.61758C8.27904 9.94032 8.26219 10.016 8.23774 10.0123C8.19362 10.0055 7.81154 9.71543 7.81154 9.68867C7.81154 9.67463 7.86129 9.61948 7.92208 9.56611C8.01435 9.48511 8.05857 9.46907 8.18977 9.46907H8.34696L8.32554 9.61758ZM7.31777 10.5893C7.49476 10.7239 7.72762 10.8934 7.83524 10.9658C8.06201 11.1184 8.05913 11.0614 7.86892 11.6373C7.63384 12.349 7.27634 12.9312 7.0376 12.9911C6.80274 13.05 6.39362 12.4409 6.12812 11.6371C5.93538 11.0536 5.92396 11.1277 6.24015 10.9098C6.39068 10.8061 6.61941 10.6376 6.7484 10.5354C6.87738 10.4332 6.98586 10.3484 6.98945 10.347C6.99305 10.3456 7.14079 10.4547 7.31777 10.5893Z" fill="white"/>
</svg>
